<svg xmlns="http://www.w3.org/2000/svg" version="1.1" viewBox="-5.0 -5.0 110.0 110.0">
 <path d="m62.453 17.75c-10.438 0.003906-19.457 7.1562-22.125 17.191-2.5625-1.2422-5.3672-1.9023-8.2266-1.9023h0.003907c-9.7617 0.003907-17.855 7.4922-18.938 17.172-7.5 1.3438-13.168 7.9492-13.168 15.891 0 8.9102 7.1484 16.148 15.988 16.148h63.242c11.508 0 20.77-9.582 20.77-21.367 0-9.5977-6.125-17.719-14.637-20.406-0.27734-12.566-10.418-22.727-22.898-22.727h-0.011719zm0.011719 0h0.066406-0.011719-0.058593zm-0.011719 3.125h0.007813c10.934 0 19.785 8.9648 19.801 20.098-0.011719 0.19531-0.023438 0.38672-0.03125 0.58203-0.039063 0.74609 0.45703 1.418 1.1836 1.6016 7.7188 1.9258 13.461 9.0742 13.461 17.727 0 10.156-7.8672 18.242-17.645 18.242h-63.242c-7.1445 0-12.863-5.7734-12.863-13.023 0-6.8281 5.0859-12.34 11.633-12.965h-0.003906c0.77734-0.074219 1.3789-0.70703 1.4141-1.4844 0.38672-8.6914 7.4023-15.48 15.938-15.484 2.9922 0 5.9258 0.85547 8.4648 2.4688v-0.003907c0.44141 0.28125 0.99219 0.32422 1.4727 0.10938 0.47656-0.21094 0.81641-0.64844 0.90625-1.1641 1.6406-9.668 9.8711-16.699 19.504-16.703z"/>
</svg>
