<svg xmlns="http://www.w3.org/2000/svg" viewBox="0 0 64 64" x="0px" y="0px"><g><path d="M43.47,10.6a3.55,3.55,0,0,0-5.76-2.8,3.59,3.59,0,0,0-3-1.56A3.51,3.51,0,0,0,32.56,7a3.54,3.54,0,0,0-3-1.57h0a3.55,3.55,0,0,0-2.19.77,3.58,3.58,0,0,0-6.53,2v5A3.12,3.12,0,0,0,18.29,15,15.31,15.31,0,0,0,11,40.74L28,57.69a5.67,5.67,0,0,0,8,0L53,40.74a15.31,15.31,0,0,0-9.49-26.09ZM39.9,9a1.57,1.57,0,0,1,1.57,1.57v4a1.57,1.57,0,0,1-3.14,0v-4A1.57,1.57,0,0,1,39.9,9Zm-5.15-.79a1.57,1.57,0,0,1,1.58,1.57v4.75a1.58,1.58,0,0,1-3.15,0V9.81A1.57,1.57,0,0,1,34.75,8.24Zm-5.14-.8A1.57,1.57,0,0,1,31.18,9v4.7a3.89,3.89,0,0,0-2-.55H28V9A1.57,1.57,0,0,1,29.61,7.44Zm-5.15-.79A1.57,1.57,0,0,1,26,8.22v4.94H22.89V8.22A1.57,1.57,0,0,1,24.46,6.65Zm-2.57,8.51h7.32a2,2,0,0,1,0,3.94h-3a1,1,0,0,0,0,2h2.7a3.8,3.8,0,0,1,1.19,3.79,1,1,0,0,0,.76,1.19,1,1,0,0,0,1.2-.76,5.66,5.66,0,0,0-.93-4.71,4,4,0,0,0,2-2.89A3.53,3.53,0,0,0,37.33,17a3.58,3.58,0,0,0,2.57,1.1,3.43,3.43,0,0,0,1.57-.38v6.5a19.72,19.72,0,0,1-.14,2.48c-.14,1.25-.46,2.79-.79,4.43a51.84,51.84,0,0,0-1,6.41h-14c0-2.86-1.9-6-3.92-9a12.67,12.67,0,0,1-2-7.23C19.57,15.16,20.15,15.16,21.89,15.16Zm-9.44,5.32a13.17,13.17,0,0,1,5.27-3.23,38,38,0,0,0-.15,4.1,14.52,14.52,0,0,0,2.36,8.35c1.16,1.71,3.57,5.26,3.57,7.93a2.38,2.38,0,0,0-1.85,2.31v8.59l-9.2-9.2A13.34,13.34,0,0,1,12.45,20.48ZM34.6,56.28a3.69,3.69,0,0,1-5.2,0l-5.75-5.75V39.94a.37.37,0,0,1,.37-.37H41a.38.38,0,0,1,.37.37v9.62Zm16.95-35.8a13.34,13.34,0,0,1,0,18.85l-8.23,8.23V39.94a2.37,2.37,0,0,0-1.82-2.29,52.28,52.28,0,0,1,1-6.09c.34-1.68.67-3.26.82-4.59a23.87,23.87,0,0,0,.15-2.72V16.66A13.21,13.21,0,0,1,51.55,20.48Z"/></g></svg>
