<svg xmlns="http://www.w3.org/2000/svg" version="1.1" viewBox="-5.0 -5.0 110.0 110.0">
 <path d="m81.789 16.738c-0.55078-1-1.1602-1.9805-1.8281-2.9102-9.1992-12.859-27.09-15.828-39.961-6.6172-3.5781-1.8906-7.5781-2.8789-11.629-2.8594-13.871 0-25.121 11.238-25.141 25.109 0 3.5195 0.75 7.0117 2.1992 10.219-1.6406 3.3516-2.3789 7.0586-2.1602 10.781 0.69922 11.938 10.949 21.039 22.891 20.34 3.1914-0.17188 6.2891-1.0508 9.0703-2.5781 0.53906 13.621-11.891 27.488-12.02 27.621-0.23047 0.25-0.35938 0.57812-0.35938 0.92188 0 0.76172 0.62109 1.3789 1.3711 1.3789h37.102c0.46094 0 0.87891-0.21875 1.1406-0.60156 0.42969-0.62891 0.26953-1.4805-0.35938-1.9102-4.5508-3.1289-7.2305-7.0117-7.9492-11.551-0.60156-3.7188 0.19141-7.3906 1.3086-10.422 3.5508 2.3711 7.7305 3.6484 12.031 3.6406 0.41016 0 0.80859-0.011719 1.2188-0.03125 11.59-0.69141 20.602-10.352 20.488-21.961 2.75-2.4805 4.8594-5.5898 6.1406-9.0586 4.3945-11.891-1.6641-25.102-13.555-29.512zm-24.379 78.652h-30.25c3.7617-4.7891 11.609-16.32 10.781-28.039-0.42969-6-3.2812-11.578-7.8789-15.449l2.75-6.1289c3.3203 1.6094 12.781 7.7188 11.602 24.648-0.03125 0.46094 0.17188 0.91016 0.53906 1.1914 0.60938 0.46094 1.4688 0.33984 1.9297-0.26172l6.8398-9 2.7617 3.2695c-1.7617 2.6211-6.3789 10.469-5.0508 18.879 0.69531 4.2109 2.7969 8.0508 5.9766 10.891zm29.488-41.73c-0.32031 0.26953-0.5 0.67969-0.48047 1.1016 0.21094 4.75-1.3711 9.3984-4.4297 13.031-6.3906 7.6016-17.48 8.9102-25.43 3.2695 1.3516-2.8281 2.7188-4.6602 2.75-4.6992 0.39062-0.51172 0.37109-1.2305-0.039063-1.7188l-4.5586-5.3906c-0.058594-0.078125-0.14063-0.14844-0.21875-0.21094-0.60156-0.46094-1.4688-0.33984-1.9297 0.26172l-5.3203 7c-0.28906-9.1406-3.6914-14.852-6.7188-18.129-2.1914-2.4492-4.9297-4.3398-8-5.5-0.67188-0.21094-1.3789 0.10938-1.6719 0.75l-3.7305 8.2891c-0.25 0.55859-0.10156 1.2305 0.37891 1.6211 3.8398 2.9492 6.4492 7.1914 7.3711 11.898-2.6602 1.6797-5.7109 2.6484-8.8594 2.8086-3.4297 0.19922-6.8516-0.53906-9.8906-2.1406-9.25-4.8594-12.809-16.301-7.9492-25.551 0.19922-0.39062 0.21094-0.83984 0.019531-1.2383-1.4688-3.0508-2.2305-6.3984-2.2188-9.7812 0.046875-12.32 10.078-22.281 22.398-22.23 3.8789-0.011718 7.6914 1 11.059 2.9414 0.48047 0.26953 1.0703 0.23047 1.5117-0.10156 1.1719-0.89844 2.4219-1.6914 3.7188-2.3711 12.672-6.6289 28.32-1.7305 34.949 10.941 0.16016 0.30859 0.44141 0.53906 0.76953 0.66016 3.4219 1.1797 6.4688 3.2617 8.8086 6.0117 7.2422 8.4961 6.2109 21.246-2.2891 28.477z"/>
</svg>
